<svg width="169" height="48" viewBox="0 0 169 48" fill="none" xmlns="http://www.w3.org/2000/svg">
<mask id="mask0_97_113" style="mask-type:alpha" maskUnits="userSpaceOnUse" x="16" y="12" width="24" height="24">
<rect x="16" y="12" width="24" height="24" fill="#D9D9D9"/>
</mask>
<g mask="url(#mask0_97_113)">
<path d="M19.55 24L26.9 31.35C27.15 31.6 27.2708 31.8917 27.2625 32.225C27.2541 32.5583 27.125 32.85 26.875 33.1C26.625 33.35 26.3333 33.475 26 33.475C25.6666 33.475 25.375 33.35 25.125 33.1L17.425 25.425C17.225 25.225 17.075 25 16.975 24.75C16.875 24.5 16.825 24.25 16.825 24C16.825 23.75 16.875 23.5 16.975 23.25C17.075 23 17.225 22.775 17.425 22.575L25.125 14.875C25.375 14.625 25.6708 14.5042 26.0125 14.5125C26.3541 14.5208 26.65 14.65 26.9 14.9C27.15 15.15 27.275 15.4417 27.275 15.775C27.275 16.1083 27.15 16.4 26.9 16.65L19.55 24Z" fill="#FF2A00"/>
</g>
<path d="M44.96 30.112C44.1813 30.112 43.4773 29.9787 42.848 29.712C42.2293 29.4453 41.7387 29.0613 41.376 28.56C41.0133 28.0587 40.8267 27.4667 40.816 26.784H43.216C43.248 27.2427 43.408 27.6053 43.696 27.872C43.9947 28.1387 44.4 28.272 44.912 28.272C45.4347 28.272 45.8453 28.1493 46.144 27.904C46.4427 27.648 46.592 27.3173 46.592 26.912C46.592 26.5813 46.4907 26.3093 46.288 26.096C46.0853 25.8827 45.8293 25.7173 45.52 25.6C45.2213 25.472 44.8053 25.3333 44.272 25.184C43.5467 24.9707 42.9547 24.7627 42.496 24.56C42.048 24.3467 41.6587 24.032 41.328 23.616C41.008 23.1893 40.848 22.624 40.848 21.92C40.848 21.2587 41.0133 20.6827 41.344 20.192C41.6747 19.7013 42.1387 19.328 42.736 19.072C43.3333 18.8053 44.016 18.672 44.784 18.672C45.936 18.672 46.8693 18.9547 47.584 19.52C48.3093 20.0747 48.7093 20.8533 48.784 21.856H46.32C46.2987 21.472 46.1333 21.1573 45.824 20.912C45.5253 20.656 45.1253 20.528 44.624 20.528C44.1867 20.528 43.8347 20.64 43.568 20.864C43.312 21.088 43.184 21.4133 43.184 21.84C43.184 22.1387 43.28 22.3893 43.472 22.592C43.6747 22.784 43.92 22.944 44.208 23.072C44.5067 23.1893 44.9227 23.328 45.456 23.488C46.1813 23.7013 46.7733 23.9147 47.232 24.128C47.6907 24.3413 48.0853 24.6613 48.416 25.088C48.7467 25.5147 48.912 26.0747 48.912 26.768C48.912 27.3653 48.7573 27.92 48.448 28.432C48.1387 28.944 47.6853 29.3547 47.088 29.664C46.4907 29.9627 45.7813 30.112 44.96 30.112ZM53.094 22.416C53.382 22.0107 53.7767 21.6747 54.278 21.408C54.79 21.1307 55.3713 20.992 56.022 20.992C56.7793 20.992 57.462 21.1787 58.07 21.552C58.6887 21.9253 59.174 22.4587 59.526 23.152C59.8887 23.8347 60.07 24.6293 60.07 25.536C60.07 26.4427 59.8887 27.248 59.526 27.952C59.174 28.6453 58.6887 29.184 58.07 29.568C57.462 29.952 56.7793 30.144 56.022 30.144C55.3713 30.144 54.7953 30.0107 54.294 29.744C53.8033 29.4773 53.4033 29.1413 53.094 28.736V34.224H50.854V21.136H53.094V22.416ZM57.782 25.536C57.782 25.0027 57.67 24.544 57.446 24.16C57.2327 23.7653 56.9447 23.4667 56.582 23.264C56.23 23.0613 55.846 22.96 55.43 22.96C55.0247 22.96 54.6407 23.0667 54.278 23.28C53.926 23.4827 53.638 23.7813 53.414 24.176C53.2007 24.5707 53.094 25.0347 53.094 25.568C53.094 26.1013 53.2007 26.5653 53.414 26.96C53.638 27.3547 53.926 27.6587 54.278 27.872C54.6407 28.0747 55.0247 28.176 55.43 28.176C55.846 28.176 56.23 28.0693 56.582 27.856C56.9447 27.6427 57.2327 27.3387 57.446 26.944C57.67 26.5493 57.782 26.08 57.782 25.536ZM63.9378 22.512C64.2258 22.0427 64.5991 21.6747 65.0578 21.408C65.5271 21.1413 66.0604 21.008 66.6578 21.008V23.36H66.0658C65.3618 23.36 64.8284 23.5253 64.4658 23.856C64.1138 24.1867 63.9378 24.7627 63.9378 25.584V30H61.6978V21.136H63.9378V22.512ZM76.4065 25.376C76.4065 25.696 76.3852 25.984 76.3425 26.24H69.8625C69.9158 26.88 70.1398 27.3813 70.5345 27.744C70.9292 28.1067 71.4145 28.288 71.9905 28.288C72.8225 28.288 73.4145 27.9307 73.7665 27.216H76.1825C75.9265 28.0693 75.4358 28.7733 74.7105 29.328C73.9852 29.872 73.0945 30.144 72.0385 30.144C71.1852 30.144 70.4172 29.9573 69.7345 29.584C69.0625 29.2 68.5345 28.6613 68.1505 27.968C67.7772 27.2747 67.5905 26.4747 67.5905 25.568C67.5905 24.6507 67.7772 23.8453 68.1505 23.152C68.5238 22.4587 69.0465 21.9253 69.7185 21.552C70.3905 21.1787 71.1638 20.992 72.0385 20.992C72.8812 20.992 73.6332 21.1733 74.2945 21.536C74.9665 21.8987 75.4838 22.416 75.8465 23.088C76.2198 23.7493 76.4065 24.512 76.4065 25.376ZM74.0865 24.736C74.0758 24.16 73.8678 23.7013 73.4625 23.36C73.0572 23.008 72.5612 22.832 71.9745 22.832C71.4198 22.832 70.9505 23.0027 70.5665 23.344C70.1932 23.6747 69.9638 24.1387 69.8785 24.736H74.0865ZM77.4655 25.536C77.4655 24.64 77.6415 23.8453 77.9935 23.152C78.3562 22.4587 78.8415 21.9253 79.4495 21.552C80.0682 21.1787 80.7562 20.992 81.5135 20.992C82.1748 20.992 82.7508 21.1253 83.2415 21.392C83.7428 21.6587 84.1428 21.9947 84.4415 22.4V21.136H86.6975V30H84.4415V28.704C84.1535 29.12 83.7535 29.4667 83.2415 29.744C82.7402 30.0107 82.1588 30.144 81.4975 30.144C80.7508 30.144 80.0682 29.952 79.4495 29.568C78.8415 29.184 78.3562 28.6453 77.9935 27.952C77.6415 27.248 77.4655 26.4427 77.4655 25.536ZM84.4415 25.568C84.4415 25.024 84.3348 24.56 84.1215 24.176C83.9082 23.7813 83.6202 23.4827 83.2575 23.28C82.8948 23.0667 82.5055 22.96 82.0895 22.96C81.6735 22.96 81.2895 23.0613 80.9375 23.264C80.5855 23.4667 80.2975 23.7653 80.0735 24.16C79.8602 24.544 79.7535 25.0027 79.7535 25.536C79.7535 26.0693 79.8602 26.5387 80.0735 26.944C80.2975 27.3387 80.5855 27.6427 80.9375 27.856C81.3002 28.0693 81.6842 28.176 82.0895 28.176C82.5055 28.176 82.8948 28.0747 83.2575 27.872C83.6202 27.6587 83.9082 27.36 84.1215 26.976C84.3348 26.5813 84.4415 26.112 84.4415 25.568ZM88.3092 25.536C88.3092 24.64 88.4852 23.8453 88.8372 23.152C89.1999 22.4587 89.6906 21.9253 90.3093 21.552C90.9279 21.1787 91.6159 20.992 92.3733 20.992C92.9493 20.992 93.4986 21.12 94.0213 21.376C94.5439 21.6213 94.9599 21.952 95.2693 22.368V18.16H97.5413V30H95.2693V28.688C94.9919 29.1253 94.6026 29.4773 94.1013 29.744C93.5999 30.0107 93.0186 30.144 92.3573 30.144C91.6106 30.144 90.9279 29.952 90.3093 29.568C89.6906 29.184 89.1999 28.6453 88.8372 27.952C88.4852 27.248 88.3092 26.4427 88.3092 25.536ZM95.2853 25.568C95.2853 25.024 95.1786 24.56 94.9653 24.176C94.7519 23.7813 94.4639 23.4827 94.1013 23.28C93.7386 23.0667 93.3493 22.96 92.9333 22.96C92.5173 22.96 92.1333 23.0613 91.7812 23.264C91.4293 23.4667 91.1413 23.7653 90.9173 24.16C90.7039 24.544 90.5973 25.0027 90.5973 25.536C90.5973 26.0693 90.7039 26.5387 90.9173 26.944C91.1413 27.3387 91.4293 27.6427 91.7812 27.856C92.1439 28.0693 92.5279 28.176 92.9333 28.176C93.3493 28.176 93.7386 28.0747 94.1013 27.872C94.4639 27.6587 94.7519 27.36 94.9653 26.976C95.1786 26.5813 95.2853 26.112 95.2853 25.568ZM105.489 30L103.025 25.648H101.969V30H99.729V18.832H103.921C104.785 18.832 105.521 18.9867 106.129 19.296C106.737 19.5947 107.19 20.0053 107.489 20.528C107.798 21.04 107.953 21.616 107.953 22.256C107.953 22.992 107.74 23.6587 107.313 24.256C106.886 24.8427 106.252 25.248 105.409 25.472L108.081 30H105.489ZM101.969 23.968H103.841C104.449 23.968 104.902 23.824 105.201 23.536C105.5 23.2373 105.649 22.8267 105.649 22.304C105.649 21.792 105.5 21.3973 105.201 21.12C104.902 20.832 104.449 20.688 103.841 20.688H101.969V23.968ZM118.347 21.136V30H116.091V28.88C115.803 29.264 115.424 29.568 114.955 29.792C114.496 30.0053 113.995 30.112 113.451 30.112C112.758 30.112 112.144 29.968 111.611 29.68C111.078 29.3813 110.656 28.9493 110.347 28.384C110.048 27.808 109.899 27.1253 109.899 26.336V21.136H112.139V26.016C112.139 26.72 112.315 27.264 112.667 27.648C113.019 28.0213 113.499 28.208 114.107 28.208C114.726 28.208 115.211 28.0213 115.563 27.648C115.915 27.264 116.091 26.72 116.091 26.016V21.136H118.347ZM131.565 21.008C132.653 21.008 133.528 21.344 134.189 22.016C134.861 22.6773 135.197 23.6053 135.197 24.8V30H132.957V25.104C132.957 24.4107 132.781 23.8827 132.429 23.52C132.077 23.1467 131.597 22.96 130.989 22.96C130.381 22.96 129.896 23.1467 129.533 23.52C129.181 23.8827 129.005 24.4107 129.005 25.104V30H126.765V25.104C126.765 24.4107 126.589 23.8827 126.237 23.52C125.885 23.1467 125.405 22.96 124.797 22.96C124.178 22.96 123.688 23.1467 123.325 23.52C122.973 23.8827 122.797 24.4107 122.797 25.104V30H120.557V21.136H122.797V22.208C123.085 21.8347 123.453 21.5413 123.901 21.328C124.36 21.1147 124.861 21.008 125.405 21.008C126.098 21.008 126.717 21.1573 127.261 21.456C127.805 21.744 128.226 22.16 128.525 22.704C128.813 22.192 129.229 21.7813 129.773 21.472C130.328 21.1627 130.925 21.008 131.565 21.008ZM141.259 30.144C140.405 30.144 139.637 29.9573 138.955 29.584C138.272 29.2 137.733 28.6613 137.339 27.968C136.955 27.2747 136.763 26.4747 136.763 25.568C136.763 24.6613 136.96 23.8613 137.355 23.168C137.76 22.4747 138.309 21.9413 139.003 21.568C139.696 21.184 140.469 20.992 141.323 20.992C142.176 20.992 142.949 21.184 143.643 21.568C144.336 21.9413 144.88 22.4747 145.275 23.168C145.68 23.8613 145.883 24.6613 145.883 25.568C145.883 26.4747 145.675 27.2747 145.259 27.968C144.853 28.6613 144.299 29.2 143.595 29.584C142.901 29.9573 142.123 30.144 141.259 30.144ZM141.259 28.192C141.664 28.192 142.043 28.096 142.395 27.904C142.757 27.7013 143.045 27.4027 143.259 27.008C143.472 26.6133 143.579 26.1333 143.579 25.568C143.579 24.7253 143.355 24.08 142.907 23.632C142.469 23.1733 141.931 22.944 141.291 22.944C140.651 22.944 140.112 23.1733 139.675 23.632C139.248 24.08 139.035 24.7253 139.035 25.568C139.035 26.4107 139.243 27.0613 139.659 27.52C140.085 27.968 140.619 28.192 141.259 28.192ZM149.766 22.512C150.054 22.0427 150.427 21.6747 150.886 21.408C151.355 21.1413 151.889 21.008 152.486 21.008V23.36H151.894C151.19 23.36 150.657 23.5253 150.294 23.856C149.942 24.1867 149.766 24.7627 149.766 25.584V30H147.526V21.136H149.766V22.512Z" fill="#FF2A00"/>
</svg>
